<?xml version="1.0" encoding="utf-8"?>
<!-- Generator: Adobe Illustrator 16.0.0, SVG Export Plug-In . SVG Version: 6.00 Build 0)  -->
<!DOCTYPE svg PUBLIC "-//W3C//DTD SVG 1.1//EN" "http://www.w3.org/Graphics/SVG/1.1/DTD/svg11.dtd">
<svg version="1.1" id="Layer_1" xmlns="http://www.w3.org/2000/svg" xmlns:xlink="http://www.w3.org/1999/xlink" x="0px" y="0px"
	 width="78.607px" height="78.609px" viewBox="0 0 78.607 78.609" enable-background="new 0 0 78.607 78.609" xml:space="preserve">
<g>
	<path opacity="0.2" d="M0,39.304L0,39.304C0,17.597,17.598,0,39.305,0C61.01,0,78.607,17.597,78.607,39.304l0,0
		c0,21.707-17.598,39.305-39.303,39.305C17.598,78.609,0,61.011,0,39.304z"/>
	<path fill="none" stroke="#FFFFFF" stroke-width="2.8347" stroke-miterlimit="10" d="M6.309,39.304L6.309,39.304
		c0-18.223,14.771-32.996,32.996-32.996c18.223,0,32.994,14.773,32.994,32.996l0,0c0,18.223-14.771,32.996-32.994,32.996
		C21.08,72.3,6.309,57.527,6.309,39.304z"/>
	<path opacity="0.1" d="M9.975,39.304L9.975,39.304c0-16.197,13.131-29.328,29.33-29.328c16.197,0,29.328,13.131,29.328,29.328l0,0
		c0,16.199-13.131,29.33-29.328,29.33C23.105,68.634,9.975,55.503,9.975,39.304z"/>
	<g>
		
			<line fill="none" stroke="#FFFFFF" stroke-width="2.8347" stroke-miterlimit="10" x1="28.293" y1="27.304" x2="51.586" y2="50.599"/>
		
			<line fill="none" stroke="#FFFFFF" stroke-width="2.8347" stroke-miterlimit="10" x1="51.586" y1="27.304" x2="28.293" y2="50.599"/>
	</g>
</g>
</svg>
