<?xml version="1.0" encoding="utf-8"?>
<!-- Generator: Adobe Illustrator 16.0.0, SVG Export Plug-In . SVG Version: 6.00 Build 0)  -->
<!DOCTYPE svg PUBLIC "-//W3C//DTD SVG 1.1//EN" "http://www.w3.org/Graphics/SVG/1.1/DTD/svg11.dtd">
<svg version="1.1" id="Layer_1" xmlns="http://www.w3.org/2000/svg" xmlns:xlink="http://www.w3.org/1999/xlink" x="0px" y="0px"
	 width="58.586px" height="58.586px" viewBox="0 0 58.586 58.586" enable-background="new 0 0 58.586 58.586" xml:space="preserve">
<g>
	<path opacity="0.2" d="M0,29.293L0,29.293C0,13.115,13.115,0,29.293,0C45.47,0,58.586,13.115,58.586,29.293l0,0
		c0,16.178-13.116,29.293-29.293,29.293C13.115,58.586,0,45.471,0,29.293z"/>
	<path fill="none" stroke="#FFFFFF" stroke-width="2.8347" stroke-miterlimit="10" d="M4.702,29.293L4.702,29.293
		c0-13.581,11.01-24.591,24.591-24.591s24.591,11.01,24.591,24.591l0,0c0,13.581-11.01,24.592-24.591,24.592
		S4.702,42.874,4.702,29.293z"/>
	<path opacity="0.1" d="M7.434,29.293L7.434,29.293c0-12.072,9.787-21.859,21.859-21.859c12.071,0,21.858,9.787,21.858,21.859l0,0
		c0,12.073-9.787,21.86-21.858,21.86C17.221,51.153,7.434,41.366,7.434,29.293z"/>
	<polygon fill="#FFFFFF" points="29.293,22.354 39.21,22.354 34.251,30.942 29.293,39.53 24.335,30.942 19.376,22.354 	"/>
</g>
</svg>
