<?xml version="1.0" encoding="utf-8"?>
<!-- Generator: Adobe Illustrator 18.0.0, SVG Export Plug-In . SVG Version: 6.00 Build 0)  -->
<!DOCTYPE svg PUBLIC "-//W3C//DTD SVG 1.1//EN" "http://www.w3.org/Graphics/SVG/1.1/DTD/svg11.dtd">
<svg version="1.1" id="Capa_1" xmlns="http://www.w3.org/2000/svg" xmlns:xlink="http://www.w3.org/1999/xlink" x="0px" y="0px"
	 viewBox="0 0 499.9 279.8" enable-background="new 0 0 499.9 279.8" xml:space="preserve">
<g>
	<g>
		<defs>
			<path id="SVGID_1_" d="M201.8,167.5l51.4-30l52.2,30.1L201.8,167.5z M255,134.4V74l51.9,90.2L255,134.4z M251.3,72.3v62.1
				l-54.1,31.5L251.3,72.3z M189.9,171.2l125.2,0.1L252.7,62.6L189.9,171.2z"/>
		</defs>
		<use xlink:href="#SVGID_1_"  overflow="visible"/>
		<clipPath id="SVGID_2_">
			<use xlink:href="#SVGID_1_"  overflow="visible"/>
		</clipPath>
		<polygon clip-path="url(#SVGID_2_)" points="252.6,0 369.5,117 252.6,233.9 135.6,117 		"/>
	</g>
	<g>
		<path d="M33.3,107.9l-17.5-7.2c-22.2,54-20.3,111.9,0.6,161.9l17.4-7.3C14.8,209.8,13.1,157.1,33.3,107.9z"/>
		<path d="M466.5,107.9l17.5-7.2c22.2,54,20.3,111.9-0.6,161.9l-17.4-7.3C485,209.8,486.7,157.1,466.5,107.9z"/>
	</g>
	<g>
		<path d="M220.4,211.6l-12.6-13.2v12.9h-3.4v-20.3l0.5-0.1l12.4,13.1v-12.7h3.4v20.4L220.4,211.6z"/>
		<path d="M230.8,211.2v-20.1h3.4v20.1H230.8z"/>
		<path d="M251.6,211.5h-0.4l-9.3-20.3h3.9l5.6,13.4l5.6-13.4h3.8L251.6,211.5z"/>
		<path d="M268.5,211.2v-20.1h12.2v3.1h-8.8v5.3h8v3h-8v5.6h8.8v3.1H268.5z"/>
		<path d="M290.2,211.2v-20.1h3.4v16.9h8.8v3.1H290.2z"/>
	</g>
</g>
</svg>
