<?xml version="1.0" encoding="utf-8"?>
<!-- Generator: Adobe Illustrator 16.0.0, SVG Export Plug-In . SVG Version: 6.00 Build 0)  -->
<!DOCTYPE svg PUBLIC "-//W3C//DTD SVG 1.1//EN" "http://www.w3.org/Graphics/SVG/1.1/DTD/svg11.dtd">
<svg version="1.1" xmlns="http://www.w3.org/2000/svg" xmlns:xlink="http://www.w3.org/1999/xlink" x="0px" y="0px"
	  viewBox="0 0 47.071 47.07" enable-background="new 0 0 47.071 47.07" xml:space="preserve">
<g>
	<polygon points="28.785,31.564 14.878,23.535 28.785,15.506 	"/>
</g>
<g>
	<path d="M23.536,47.07C10.559,47.07,0,36.512,0,23.535C0,10.558,10.559,0,23.536,0
		c12.977,0,23.535,10.558,23.535,23.535C47.071,36.512,36.513,47.07,23.536,47.07z M23.536,3.209
		c-11.208,0-20.326,9.119-20.326,20.326c0,11.207,9.118,20.326,20.326,20.326c11.207,0,20.326-9.119,20.326-20.326
		C43.862,12.328,34.743,3.209,23.536,3.209z"/>
</g>
</svg>
