<?xml version="1.0" encoding="utf-8"?>
<!-- Generator: Adobe Illustrator 16.0.0, SVG Export Plug-In . SVG Version: 6.00 Build 0)  -->
<!DOCTYPE svg PUBLIC "-//W3C//DTD SVG 1.1//EN" "http://www.w3.org/Graphics/SVG/1.1/DTD/svg11.dtd">
<svg version="1.1" id="Layer_1" xmlns="http://www.w3.org/2000/svg" xmlns:xlink="http://www.w3.org/1999/xlink" x="0px" y="0px"
	 width="79.608px" height="79.609px" viewBox="0 0 79.608 79.609" enable-background="new 0 0 79.608 79.609" xml:space="preserve">
<g>
	<g>
		<line stroke="#FFFFFF" stroke-width="2.8347" stroke-miterlimit="10" x1="30.292" y1="28.012" x2="53.586" y2="51.307"/>
		<line stroke="#FFFFFF" stroke-width="2.8347" stroke-miterlimit="10" x1="53.586" y1="28.012" x2="30.292" y2="51.307"/>
	</g>
	<g>
		<path d="M0.14,40.305L0.14,40.305C0.14,18.598,17.737,1,39.444,1c21.705,0,39.303,17.598,39.303,39.305l0,0
			c0,21.707-17.598,39.305-39.303,39.305C17.737,79.609,0.14,62.012,0.14,40.305z"/>
		<path fill="none" stroke="#FFFFFF" stroke-width="2.8347" stroke-miterlimit="10" d="M6.448,40.305L6.448,40.305
			c0-18.223,14.771-32.996,32.996-32.996c18.223,0,32.994,14.773,32.994,32.996l0,0c0,18.223-14.771,32.996-32.994,32.996
			C21.22,73.301,6.448,58.527,6.448,40.305z"/>
		<path d="M10.114,40.305L10.114,40.305c0-16.197,13.131-29.328,29.33-29.328c16.197,0,29.328,13.131,29.328,29.328l0,0
			c0,16.199-13.131,29.33-29.328,29.33C23.245,69.635,10.114,56.504,10.114,40.305z"/>
		<g>
			
				<line fill="none" stroke="#FFFFFF" stroke-width="2.8347" stroke-miterlimit="10" x1="28.433" y1="28.305" x2="51.726" y2="51.6"/>
			
				<line fill="none" stroke="#FFFFFF" stroke-width="2.8347" stroke-miterlimit="10" x1="51.726" y1="28.305" x2="28.433" y2="51.6"/>
		</g>
	</g>
</g>
</svg>
