<?xml version="1.0" encoding="utf-8"?>
<!-- Generator: Adobe Illustrator 16.0.0, SVG Export Plug-In . SVG Version: 6.00 Build 0)  -->
<!DOCTYPE svg PUBLIC "-//W3C//DTD SVG 1.1//EN" "http://www.w3.org/Graphics/SVG/1.1/DTD/svg11.dtd">
<svg version="1.1" id="Capa_1" xmlns="http://www.w3.org/2000/svg" xmlns:xlink="http://www.w3.org/1999/xlink" x="0px" y="0px"
	 width="47.071px" height="47.07px" viewBox="0 0 47.071 47.07" enable-background="new 0 0 47.071 47.07" xml:space="preserve">
<g>
	<circle fill="#FFFFFF" cx="23.459" cy="23.198" r="20.326"/>
</g>
<g>
	<polygon fill="#6D6C6B" points="18.209,15.169 32.117,23.198 18.209,31.228 	"/>
</g>
<g>
	<path fill="#6D6C6B" d="M23.459,46.733c-12.978,0-23.535-10.558-23.535-23.535S10.482-0.337,23.459-0.337
		c12.978,0,23.535,10.558,23.535,23.535S36.438,46.733,23.459,46.733z M23.459,2.872c-11.207,0-20.326,9.119-20.326,20.326
		c0,11.208,9.119,20.325,20.326,20.325c11.208,0,20.326-9.117,20.326-20.325C43.785,11.991,34.668,2.872,23.459,2.872z"/>
</g>
</svg>
