<?xml version="1.0" encoding="utf-8"?>
<!-- Generator: Adobe Illustrator 16.0.0, SVG Export Plug-In . SVG Version: 6.00 Build 0)  -->
<!DOCTYPE svg PUBLIC "-//W3C//DTD SVG 1.1//EN" "http://www.w3.org/Graphics/SVG/1.1/DTD/svg11.dtd">
<svg version="1.1" id="Layer_1" xmlns="http://www.w3.org/2000/svg" xmlns:xlink="http://www.w3.org/1999/xlink" x="0px" y="0px"
	 width="58.586px" height="58.586px" viewBox="0 0 58.586 58.586" enable-background="new 0 0 58.586 58.586" xml:space="preserve">
<g>
	<path opacity="0.2" d="M29.971,58.143L29.971,58.143c-16.178,0-29.293-13.115-29.293-29.293c0-16.177,13.115-29.293,29.293-29.293
		l0,0c16.179,0,29.293,13.116,29.293,29.293C59.264,45.028,46.149,58.143,29.971,58.143z"/>
	<path fill="none" stroke="#FFFFFF" stroke-width="2.8347" stroke-miterlimit="10" d="M29.971,53.441L29.971,53.441
		C16.39,53.441,5.38,42.431,5.38,28.85S16.39,4.259,29.971,4.259l0,0c13.581,0,24.592,11.01,24.592,24.591
		S43.552,53.441,29.971,53.441z"/>
	<path opacity="0.1" d="M29.971,50.709L29.971,50.709c-12.072,0-21.859-9.787-21.859-21.859c0-12.071,9.787-21.858,21.859-21.858
		l0,0c12.073,0,21.859,9.787,21.859,21.858C51.83,40.922,42.044,50.709,29.971,50.709z"/>
	<polygon fill="#FFFFFF" points="23.032,28.85 23.032,18.933 31.62,23.892 40.208,28.85 31.62,33.808 23.032,38.767 	"/>
</g>
</svg>
