<?xml version="1.0" encoding="utf-8"?>
<!-- Generator: Adobe Illustrator 16.0.0, SVG Export Plug-In . SVG Version: 6.00 Build 0)  -->
<!DOCTYPE svg PUBLIC "-//W3C//DTD SVG 1.1//EN" "http://www.w3.org/Graphics/SVG/1.1/DTD/svg11.dtd">
<svg version="1.1" id="Layer_1" xmlns="http://www.w3.org/2000/svg" xmlns:xlink="http://www.w3.org/1999/xlink" x="0px" y="0px"
	 width="58.586px" height="58.586px" viewBox="0 0 58.586 58.586" enable-background="new 0 0 58.586 58.586" xml:space="preserve">
<g>
	<path opacity="0.2" d="M59.292,28.849L59.292,28.849c0,16.178-13.115,29.293-29.293,29.293c-16.177,0-29.293-13.115-29.293-29.293
		l0,0c0-16.179,13.116-29.293,29.293-29.293C46.177-0.444,59.292,12.67,59.292,28.849z"/>
	<path fill="none" stroke="#FFFFFF" stroke-width="2.8347" stroke-miterlimit="10" d="M54.59,28.849L54.59,28.849
		c0,13.581-11.01,24.591-24.591,24.591S5.408,42.43,5.408,28.849l0,0c0-13.581,11.01-24.592,24.591-24.592
		S54.59,15.268,54.59,28.849z"/>
	<path opacity="0.1" d="M51.858,28.849L51.858,28.849c0,12.072-9.787,21.859-21.859,21.859c-12.071,0-21.858-9.787-21.858-21.859
		l0,0c0-12.073,9.787-21.859,21.858-21.859C42.071,6.99,51.858,16.776,51.858,28.849z"/>
	<polygon fill="#FFFFFF" points="29.999,35.788 20.082,35.788 25.041,27.2 29.999,18.612 34.957,27.2 39.916,35.788 	"/>
</g>
</svg>
