<?xml version="1.0" encoding="utf-8"?>
<!-- Generator: Adobe Illustrator 16.0.0, SVG Export Plug-In . SVG Version: 6.00 Build 0)  -->
<!DOCTYPE svg PUBLIC "-//W3C//DTD SVG 1.1//EN" "http://www.w3.org/Graphics/SVG/1.1/DTD/svg11.dtd">
<svg version="1.1" id="Layer_1" xmlns="http://www.w3.org/2000/svg" xmlns:xlink="http://www.w3.org/1999/xlink" x="0px" y="0px"
	 width="58.586px" height="58.586px" viewBox="0 0 58.586 58.586" enable-background="new 0 0 58.586 58.586" xml:space="preserve">
<g>
	<path d="M29.251,58.143L29.251,58.143c-16.178,0-29.293-13.115-29.293-29.293c0-16.177,13.115-29.293,29.293-29.293
		l0,0c16.179,0,29.293,13.116,29.293,29.293C58.544,45.028,45.43,58.143,29.251,58.143z"/>
	<path fill="none" stroke="#FFFFFF" stroke-width="2.8347" stroke-miterlimit="10" d="M29.251,53.441L29.251,53.441
		c-13.58,0-24.591-11.01-24.591-24.591S15.671,4.259,29.251,4.259l0,0c13.581,0,24.592,11.01,24.592,24.591
		S42.832,53.441,29.251,53.441z"/>
	<path opacity="0.1" d="M29.251,50.709L29.251,50.709c-12.072,0-21.859-9.787-21.859-21.859c0-12.071,9.787-21.858,21.859-21.858
		l0,0c12.073,0,21.859,9.787,21.859,21.858C51.11,40.922,41.324,50.709,29.251,50.709z"/>
	<g>
		
			<rect x="19.71" y="16.614" fill="none" stroke="#FFFFFF" stroke-width="1.4173" stroke-miterlimit="10" width="19.084" height="24.473"/>
		
			<line fill="none" stroke="#FFFFFF" stroke-width="1.4173" stroke-miterlimit="10" x1="22.436" y1="21.522" x2="26.979" y2="21.522"/>
		
			<line fill="none" stroke="#FFFFFF" stroke-width="1.4173" stroke-miterlimit="10" x1="22.436" y1="25.684" x2="35.387" y2="25.684"/>
		
			<line fill="none" stroke="#FFFFFF" stroke-width="1.4173" stroke-miterlimit="10" x1="22.436" y1="29.702" x2="35.387" y2="29.702"/>
		
			<line fill="none" stroke="#FFFFFF" stroke-width="1.4173" stroke-miterlimit="10" x1="22.436" y1="33.41" x2="35.387" y2="33.41"/>
		
			<line fill="none" stroke="#FFFFFF" stroke-width="1.4173" stroke-miterlimit="10" x1="22.436" y1="37.426" x2="35.387" y2="37.426"/>
	</g>
</g>
</svg>
